<svg width="33" height="32" viewBox="0 0 33 32" fill="none" xmlns="http://www.w3.org/2000/svg">
<path d="M16.5003 21.3337C21.6603 21.3337 25.8337 17.1603 25.8337 12.0003C25.8337 6.84033 21.6603 2.66699 16.5003 2.66699C11.3403 2.66699 7.16699 6.84033 7.16699 12.0003C7.16699 17.1603 11.3403 21.3337 16.5003 21.3337ZM16.5003 5.33366C20.1803 5.33366 23.167 8.32033 23.167 12.0003C23.167 15.6803 20.1803 18.667 16.5003 18.667C12.8203 18.667 9.83366 15.6803 9.83366 12.0003C9.83366 8.32033 12.8203 5.33366 16.5003 5.33366Z" fill="#00753D"/>
<path d="M13.8333 12.0007C14.5697 12.0007 15.1667 11.4037 15.1667 10.6673C15.1667 9.93094 14.5697 9.33398 13.8333 9.33398C13.097 9.33398 12.5 9.93094 12.5 10.6673C12.5 11.4037 13.097 12.0007 13.8333 12.0007Z" fill="#00753D"/>
<path d="M19.1673 12.0007C19.9037 12.0007 20.5007 11.4037 20.5007 10.6673C20.5007 9.93094 19.9037 9.33398 19.1673 9.33398C18.4309 9.33398 17.834 9.93094 17.834 10.6673C17.834 11.4037 18.4309 12.0007 19.1673 12.0007Z" fill="#00753D"/>
<path d="M16.5003 9.33366C17.2367 9.33366 17.8337 8.73671 17.8337 8.00033C17.8337 7.26395 17.2367 6.66699 16.5003 6.66699C15.7639 6.66699 15.167 7.26395 15.167 8.00033C15.167 8.73671 15.7639 9.33366 16.5003 9.33366Z" fill="#00753D"/>
<path d="M9.83398 25.3337H12.5007C13.9673 25.3337 15.1673 26.5337 15.1673 28.0003V29.3337H17.834V28.0003C17.834 26.5337 19.034 25.3337 20.5007 25.3337H23.1673V22.667H9.83398V25.3337Z" fill="#00753D"/>
</svg>
