<svg width="33" height="32" viewBox="0 0 33 32" fill="none" xmlns="http://www.w3.org/2000/svg">
<path fill-rule="evenodd" clip-rule="evenodd" d="M9.50033 4H3.16699V9.66667L9.50033 9.66667V4ZM10.167 4V9.66667L29.8337 9.66667L29.8337 4H10.167ZM29.8337 10.3333L10.167 10.3333V15.6667L29.8337 15.6667V10.3333ZM29.8337 16.3333L10.167 16.3333V21.6667L29.8337 21.6667V16.3333ZM29.8337 22.3333L10.167 22.3333V28H29.8337L29.8337 22.3333ZM9.50033 28V22.3333H3.16699V28H9.50033ZM3.16699 21.6667H9.50033V16.3333H3.16699V21.6667ZM3.16699 15.6667H9.50033V10.3333L3.16699 10.3333V15.6667Z" fill="black" fill-opacity="0.6"/>
</svg>
